<?xml version="1.0" encoding="UTF-8" standalone="no"?>
<svg
   xmlns:dc="http://purl.org/dc/elements/1.1/"
   xmlns:cc="http://creativecommons.org/ns#"
   xmlns:rdf="http://www.w3.org/1999/02/22-rdf-syntax-ns#"
   xmlns:svg="http://www.w3.org/2000/svg"
   xmlns="http://www.w3.org/2000/svg"
   xmlns:sodipodi="http://sodipodi.sourceforge.net/DTD/sodipodi-0.dtd"
   xmlns:inkscape="http://www.inkscape.org/namespaces/inkscape"
   width="128"
   height="128"
   viewBox="0 0 128 128"
   version="1.1"
   id="svg8"
   sodipodi:docname="logo.svg"
   inkscape:version="1.0.1 (3bc2e813f5, 2020-09-07)">
  <defs
     id="defs2" />
  <sodipodi:namedview
     id="base"
     pagecolor="#ffffff"
     bordercolor="#666666"
     borderopacity="1.0"
     inkscape:pageopacity="0.0"
     inkscape:pageshadow="2"
     inkscape:zoom="1.979899"
     inkscape:cx="191.29489"
     inkscape:cy="228.68857"
     inkscape:document-units="px"
     inkscape:current-layer="layer2"
     showgrid="true"
     units="px"
     borderlayer="true"
     inkscape:snap-text-baseline="true"
     inkscape:window-width="2420"
     inkscape:window-height="1406"
     inkscape:window-x="-11"
     inkscape:window-y="-11"
     inkscape:window-maximized="1"
     inkscape:snap-global="false"
     inkscape:document-rotation="0">
    <inkscape:grid
       type="xygrid"
       id="grid815"
       empspacing="4" />
  </sodipodi:namedview>
  <metadata
     id="metadata5">
    <rdf:RDF>
      <cc:Work
         rdf:about="">
        <dc:format>image/svg+xml</dc:format>
        <dc:type
           rdf:resource="http://purl.org/dc/dcmitype/StillImage" />
        <dc:title />
      </cc:Work>
    </rdf:RDF>
  </metadata>
  <g
     inkscape:groupmode="layer"
     id="layer2"
     inkscape:label="Layer 2"
     style="display:inline;opacity:1">
    <rect
       style="fill:#7b3486;stroke-width:3.77953;stroke-linejoin:round;fill-opacity:1"
       id="rect840"
       width="136"
       height="136"
       x="-4"
       y="-4" />
    <path
       style="fill:#101a27;stroke:none;stroke-width:1px;stroke-linecap:butt;stroke-linejoin:miter;stroke-opacity:1;fill-opacity:1"
       d="M 59.914672,35.292204 52.654201,51.454645 60.924825,49.371205 85.862966,66.670068 86.62058,42.300138 63.134534,30.115173 Z"
       id="path887" />
    <path
       style="fill:#c4a082;stroke:none;stroke-width:1px;stroke-linecap:butt;stroke-linejoin:miter;stroke-opacity:1;fill-opacity:1"
       d="M 51.770318,70.584409 64.270955,68.185296 59.977807,80.559665 Z"
       id="path869" />
    <path
       style="fill:#738ac4;stroke:none;stroke-width:1px;stroke-linecap:butt;stroke-linejoin:miter;stroke-opacity:1;fill-opacity:1"
       d="M 55.684659,78.918167 64.776032,65.659915 79.296974,65.533646 79.170705,74.625019 59.346462,87.630733 Z"
       id="path871" />
    <path
       style="fill:#c4a082;stroke:none;stroke-width:1px;stroke-linecap:butt;stroke-linejoin:miter;stroke-opacity:1;fill-opacity:1"
       d="m 71.847099,67.68022 4.671956,3.535534 -6.81853,5.934646 h -5.682108 l -2.399112,7.828682 10.227794,4.545687 3.661803,-7.071068 7.702413,-6.944799 0.378808,-10.985409 -3.661803,-5.429569 -6.81853,-2.77792 z"
       id="path855" />
    <path
       style="fill:#c4a082;stroke:none;stroke-width:1px;stroke-linecap:butt;stroke-linejoin:miter;stroke-opacity:1;fill-opacity:1"
       d="m 60.104076,52.149125 -0.996933,-9.24734 3.169642,-8.705357 13.482143,-1.741071 -2.857143,23.258928 -9.241071,0.669643 z"
       id="path873" />
    <path
       style="fill:#8a6859;stroke:none;stroke-width:1px;stroke-linecap:butt;stroke-linejoin:miter;stroke-opacity:1;fill-opacity:1"
       d="M 87.883271,130.94102 117.68277,117.30396 -2.3991123,57.704964 -2.0203051,131.19356 Z"
       id="path865" />
    <path
       style="fill:#611563;stroke:none;stroke-width:1px;stroke-linecap:butt;stroke-linejoin:miter;stroke-opacity:1;fill-opacity:1"
       d="m 54.927044,120.08188 6.81853,-8.58629 9.47018,-4.04061 2.904189,-15.909906 -42.300138,-16.667517 -16.541248,10.227794 -0.378807,17.677669 3.661803,0.75762 0.252538,4.67195 8.207489,1.38896 1.515229,4.16688 15.404826,1.89404 z"
       id="path861" />
    <path
       style="fill:#000000;stroke:none;stroke-width:1px;stroke-linecap:butt;stroke-linejoin:miter;stroke-opacity:1;fill-opacity:1"
       d="M 67.427682,54.927044 68.185296,44.446712 71.72083,43.815366 71.468292,55.432121 Z"
       id="path851" />
    <path
       style="fill:#ffffff;stroke:none;stroke-width:1px;stroke-linecap:butt;stroke-linejoin:miter;stroke-opacity:1;fill-opacity:1"
       d="m 59.220193,48.487322 4.798224,5.808377 10.227795,-0.252538 -2.020305,15.278557 -9.470181,3.788072 -3.914341,-7.449875 z"
       id="path849" />
    <path
       style="fill:#000000;stroke:none;stroke-width:1px;stroke-linecap:butt;stroke-linejoin:miter;stroke-opacity:1;fill-opacity:1"
       d="m 60.98796,51.012703 0.252538,-8.965104 3.156726,0.505077 -1.136421,10.73287 z"
       id="path853" />
    <path
       style="fill:#e195fb;stroke:none;stroke-width:1px;stroke-linecap:butt;stroke-linejoin:miter;stroke-opacity:1;fill-opacity:1"
       d="m 33.966379,94.575531 7.954951,-0.378807 6.187185,6.187186 5.3033,-3.409266 7.071068,1.136421 0.126269,-7.828682 3.156727,-0.631345 -2.272843,-11.743023 -9.343911,-9.848988 -13.637059,-3.030457 -9.722719,9.975256 -2.525381,12.753176 5.934646,1.515229 z"
       id="path857" />
    <path
       style="fill:#a073c3;stroke:none;stroke-width:1px;stroke-linecap:butt;stroke-linejoin:miter;stroke-opacity:1;fill-opacity:1"
       d="m 32.956227,81.317279 0.883883,-5.3033 7.449875,-6.187185 8.965104,2.020305 5.808377,10.480333 -1.38896,8.08122 -7.954951,3.030458 -9.596449,-5.808377 z"
       id="path859" />
    <path
       style="fill:#1e3047;stroke:none;stroke-width:1px;stroke-linecap:butt;stroke-linejoin:miter;stroke-opacity:1;fill-opacity:1"
       d="m 81.948625,74.751288 7.449875,-1.38896 4.166879,-8.586296 V 28.284271 l -6.439723,-14.520943 -21.213203,4.545687 -11.364216,10.354063 6.060915,-0.631345 -10.354063,14.015866 12.879445,-6.313453 3.535534,9.217642 5.050762,-9.217642 1.010153,12.374369 2.904188,-4.419418 2.399113,13.384521 4.671955,-9.848987 1.515229,15.404826 z"
       id="path863" />
    <path
       style="fill:#ae56b8;stroke:none;stroke-width:1px;stroke-linecap:butt;stroke-linejoin:miter;stroke-opacity:1;fill-opacity:1"
       d="M 100.25764,-2.1465741 132.45625,39.774756 130.68848,-1.6414979 Z"
       id="path867" />
    <path
       style="fill:#dadea2;stroke:none;stroke-width:1px;stroke-linecap:butt;stroke-linejoin:miter;stroke-opacity:1;fill-opacity:1"
       d="m 78.034284,122.22846 5.050762,-4.67196 v -2.65165 l -3.788072,-1.76777 V 92.807764 l 4.924494,-2.525381 4.798224,3.788072 0.631346,20.329315 -3.661803,1.01016 v 1.6415 l 4.293148,3.6618 -2.777919,5.05076 -5.42957,0.25254 z"
       id="path877" />
    <path
       style="fill:#ae56b8;stroke:none;stroke-width:1px;stroke-linecap:butt;stroke-linejoin:miter;stroke-opacity:1;fill-opacity:1"
       d="M 26.785714,63.571428 38.75,21.785714 l 3.035714,-27.1428568 13.75,1.7857143 -9.107143,33.2142855 z"
       id="path879" />
    <path
       style="fill:#ae56b8;stroke:none;stroke-width:1px;stroke-linecap:butt;stroke-linejoin:miter;stroke-opacity:1;fill-opacity:1"
       d="M 109.64286,90.892857 123.03571,75.178571 123.92857,56.964285 131.60714,77.5 116.78571,91.071428 Z"
       id="path881" />
    <path
       style="fill:#ae56b8;stroke:none;stroke-width:1px;stroke-linecap:butt;stroke-linejoin:miter;stroke-opacity:1;fill-opacity:1"
       d="m 89.464285,90.178571 9.821429,-18.035714 2.142856,-37.678571 6.96429,25.714285 -2.85715,20.357143 -6.785711,8.214285 z"
       id="path883" />
    <path
       style="fill:#ae56b8;stroke:none;stroke-width:1px;stroke-linecap:butt;stroke-linejoin:miter;stroke-opacity:1;fill-opacity:1"
       d="M 9.9999999,43.392857 21.071428,18.035714 20.714286,-4.4642857 14.107143,17.142857 6.7857142,38.928571 Z"
       id="path885" />
    <path
       style="fill:#375a87;stroke:none;stroke-width:1px;stroke-linecap:butt;stroke-linejoin:miter;stroke-opacity:1;fill-opacity:1"
       d="m 57.263022,35.481608 11.174813,-8.649431 -0.568211,5.240166 10.796005,-7.38674 5.682108,6.944798 1.262691,-10.227794 5.303301,4.987628 -4.798225,-11.111678 -18.750957,3.535534 -8.333758,6.944799 10.038391,-3.219861 z"
       id="path889" />
    <path
       style="display:inline;opacity:1;fill:#dadea2;fill-opacity:1;stroke:none;stroke-width:1px;stroke-linecap:butt;stroke-linejoin:miter;stroke-opacity:1"
       d="m -6.6291256,87.315063 5.050762,-4.67196 v -2.65165 l -3.788072,-1.76777 V 57.894367 l 4.92449401,-2.525381 4.79822399,3.788067 0.631346,20.32932 -3.661803,1.01016 v 1.6415 l 4.293148,3.6618 -2.777919,5.05076 -5.42957,0.25254 z"
       id="path877-8" />
    <path
       style="fill:#f3a700;stroke:none;stroke-width:1px;stroke-linecap:butt;stroke-linejoin:miter;stroke-opacity:1;fill-opacity:1"
       d="m 83.085046,92.807764 -3.788072,-3.282995 3.914341,-6.187185 -2.399112,-3.282995 3.535534,-2.399113 -1.641498,3.030458 4.419417,2.904189 0.12627,6.060915 z"
       id="path875" />
    <path
       style="display:inline;opacity:1;fill:#f3a700;fill-opacity:1;stroke:none;stroke-width:1px;stroke-linecap:butt;stroke-linejoin:miter;stroke-opacity:1"
       d="m -1.5783636,57.894367 -3.788072,-3.282995 3.914341,-6.187185 -2.399112,-3.282995 3.53553401,-2.399113 -1.64149801,3.030458 4.419417,2.904189 0.12627,6.060915 z"
       id="path875-3" />
  </g>
</svg>
